<svg width="41" height="41" viewBox="0 0 41 41" fill="none" xmlns="http://www.w3.org/2000/svg">
<path d="M25.4851 4.91009C25.4385 4.91009 25.392 4.90677 25.3454 4.89679C24.8998 4.8203 24.5971 4.39792 24.6736 3.94894C24.6803 3.90237 24.6869 3.85249 24.6869 3.8026C24.6869 3.31371 24.2911 2.91794 23.8022 2.91794H16.4988C16.0099 2.91794 15.6141 3.31371 15.6141 3.8026C15.6141 4.25491 15.2483 4.62407 14.7927 4.62407C14.3404 4.62407 13.9712 4.25823 13.9712 3.8026C13.9712 2.40909 15.1053 1.27499 16.4988 1.27499H23.8022C25.1958 1.27499 26.3299 2.40909 26.3299 3.8026C26.3299 3.94561 26.3166 4.08529 26.2933 4.22498C26.2234 4.6274 25.8775 4.91009 25.4851 4.91009ZM23.8022 29.9334H16.4988C15.1053 29.9334 13.9712 28.7993 13.9712 27.4058C13.9712 27.2661 13.9845 27.1231 14.0078 26.9834C14.0843 26.5378 14.5066 26.2351 14.9523 26.3116C15.398 26.3881 15.7006 26.8105 15.6241 27.2595C15.6175 27.3093 15.6108 27.3559 15.6108 27.4058C15.6108 27.8947 16.0066 28.2905 16.4955 28.2905H23.7989C24.2878 28.2905 24.6836 27.8947 24.6836 27.4058C24.6836 26.9535 25.0494 26.5843 25.5051 26.5843C25.9574 26.5843 26.3265 26.9502 26.3265 27.4058C26.3299 28.7993 25.1958 29.9334 23.8022 29.9334Z" fill="#E83324"/>
<path d="M23.8093 27.4257H16.4926C13.3597 27.4257 10.4064 26.1985 8.17807 23.9669C5.94978 21.7353 4.71924 18.7853 4.71924 15.6524C4.71924 12.5195 5.94646 9.5662 8.17807 7.33792C10.4064 5.10963 13.3597 3.87909 16.4926 3.87909H23.806C26.9389 3.87909 29.8922 5.10631 32.1205 7.33792C34.3488 9.56953 35.5793 12.5195 35.5793 15.6524C35.5793 18.7853 34.3521 21.7386 32.1205 23.9669C29.8955 26.1985 26.9422 27.4257 23.8093 27.4257ZM16.4926 5.51871C10.9052 5.51871 6.35886 10.0651 6.35886 15.6524C6.35886 21.2398 10.9052 25.7861 16.4926 25.7861H23.806C29.3933 25.7861 33.9397 21.2398 33.9397 15.6524C33.9397 10.0651 29.3933 5.51871 23.806 5.51871H16.4926Z" fill="#E83324"/>
<path d="M20.1502 23.5911C19.6979 23.5911 19.3287 23.2253 19.3287 22.7696V8.22925C19.3287 7.77694 19.6946 7.40778 20.1502 7.40778C20.6058 7.40778 20.9717 7.77361 20.9717 8.22925V22.7696C20.9717 23.2253 20.6025 23.5911 20.1502 23.5911ZM14.2003 22.9559C13.901 22.9559 13.615 22.7929 13.4687 22.5102C12.5873 20.7974 12.0352 19.0215 11.8257 17.2355C11.6561 15.7988 11.7093 14.3554 11.9787 12.9419C12.441 10.5207 13.3888 9.02079 13.4288 8.9576C13.6715 8.57513 14.1804 8.46538 14.5628 8.70816C14.9453 8.95095 15.0551 9.45647 14.8123 9.83893C14.8023 9.85224 13.9709 11.1892 13.5784 13.321C13.0529 16.1579 13.5086 18.9982 14.9287 21.7619C15.1349 22.1643 14.9786 22.6599 14.5728 22.8661C14.4531 22.9259 14.3267 22.9559 14.2003 22.9559ZM26.1 22.9559C25.9737 22.9559 25.8473 22.9259 25.7242 22.8661C25.3218 22.6599 25.1622 22.1643 25.3684 21.7619C28.7773 15.1336 25.518 9.89547 25.4848 9.84226C25.242 9.45979 25.3517 8.95427 25.7342 8.70816C26.1167 8.46538 26.6222 8.57513 26.8683 8.9576C26.9082 9.02079 27.8561 10.5207 28.3183 12.9419C28.5877 14.3554 28.641 15.8021 28.4713 17.2355C28.2618 19.0248 27.7097 20.7974 26.8284 22.5102C26.6854 22.7929 26.3994 22.9559 26.1 22.9559ZM20.1502 39.525C19.6979 39.525 19.3287 39.1592 19.3287 38.7035V30.0099C19.3287 29.5576 19.6946 29.1884 20.1502 29.1884C20.6058 29.1884 20.9717 29.5543 20.9717 30.0099V38.7069C20.9717 39.1592 20.6025 39.525 20.1502 39.525ZM23.8418 37.8854C23.3895 37.8854 23.0204 37.5195 23.0204 37.0639V30.0099C23.0204 29.5576 23.3862 29.1884 23.8418 29.1884C24.2975 29.1884 24.6633 29.5543 24.6633 30.0099V37.0672C24.6633 37.5195 24.2941 37.8854 23.8418 37.8854ZM16.4586 37.8854C16.0062 37.8854 15.6371 37.5195 15.6371 37.0639V30.0099C15.6371 29.5576 16.0029 29.1884 16.4586 29.1884C16.9109 29.1884 17.28 29.5543 17.28 30.0099V37.0672C17.28 37.5195 16.9109 37.8854 16.4586 37.8854Z" fill="#E83324"/>
</svg>
